<svg  width="26" height="26" viewBox="-2.4 -2.4 28.80 28.80" fill="none" xmlns="http://www.w3.org/2000/svg" stroke="#643caf" transform="matrix(1, 0, 0, 1, 0, 0)"><g id="SVGRepo_bgCarrier" stroke-width="0" transform="translate(0,0), scale(1)"><path transform="translate(-2.4, -2.4), scale(0.8999999999999999)" d="M16,31.81759668746963C18.65419459198791,32.61966358474396,21.907021478987694,31.601573437853403,23.886748134624213,29.660248475668205C25.85305973790913,27.732078347724915,24.787983774099025,24.253687179443,26.152808686852644,21.861726828385144C27.506936061719678,19.48851473304825,31.02677876825275,18.652852006810953,31.68112793099135,16C32.338997579500536,13.33287529556327,31.65709601292017,9.923330615602756,29.524684952703296,8.191519501851875C27.27072795205199,6.360996364700471,23.536499219491663,8.753313322856517,21.005617166636515,7.3300167441465955C18.52306868689887,5.933901601717897,18.846338693346368,0.6882855839145838,16.000000000000004,0.5856187054887414C13.207872773745727,0.48490722404859127,13.084915713806375,5.380020244795168,10.781465791165832,6.96123360926296C8.752183816838338,8.35424317571445,5.134747866823996,6.888043936344224,3.8031933952902257,8.958170423516997C2.493825448048198,10.993804208681313,5.074771759073155,13.581995512410026,4.967516798526049,15.999999999999998C4.852879512577844,18.584434980479536,1.8781834430722615,21.16607915028854,3.1620683956023754,23.41198326763696C4.443806890514437,25.65413257970271,8.295714392034874,24.187039845840353,10.45642172871157,25.601759221606393C12.819352870635235,27.148884282616255,13.296382534098498,31.00059476950996,16,31.81759668746963" fill="#7ed0ec" strokewidth="0"></path></g><g id="SVGRepo_tracerCarrier" stroke-linecap="round" stroke-linejoin="round"></g><g id="SVGRepo_iconCarrier"> <path d="M2 15V9C2 5.68629 4.68629 3 8 3H16C19.3137 3 22 5.68629 22 9V15C22 18.3137 19.3137 21 16 21H8C4.68629 21 2 18.3137 2 15Z" stroke="#7037a9" stroke-width="1.5"></path> <path d="M13 15.5V12.7M15.8571 12.7C16.5714 12.7 18 12.7 18 10.6C18 8.5 16.5714 8.5 15.8571 8.5L13 8.5V12.7M15.8571 12.7C14.7143 12.7 13.4762 12.7 13 12.7M15.8571 12.7L18 15.5" stroke="#7037a9" stroke-width="1.5" stroke-linecap="round" stroke-linejoin="round"></path> <path d="M11 15.5L9.92857 13M5 15.5L6.07143 13M6.07143 13L8 8.5L9.92857 13M6.07143 13H9.92857" stroke="#7037a9" stroke-width="1.5" stroke-linecap="round" stroke-linejoin="round"></path> </g></svg>