<svg  width="26" height="26" viewBox="-4.8 -4.8 57.60 57.60" fill="none" xmlns="http://www.w3.org/2000/svg"><g id="SVGRepo_bgCarrier" stroke-width="0"><path transform="translate(-4.8, -4.8), scale(1.7999999999999998)" d="M16,29.614020293578506C17.952777114533,29.49338772967913,18.634370304154785,26.71047979500313,20.349381800721854,25.768871468171028C21.888808543425956,24.923666032300932,23.90485196117733,25.39031765156768,25.392586784582633,24.457123127256644C26.995121096827212,23.45191963152602,28.933509532457585,22.146493678586637,29.12470394695299,20.26447481959079C29.32990234036636,18.244608040224804,26.402178648276667,16.940741967972453,26.36239136534956,14.910868780021287C26.317203322774635,12.605458877895373,30.4807555513135,10.229155483582836,28.89518725829489,8.554960165172819C27.047191702575756,6.6036689332213365,23.306233969273432,10.477816514429467,20.946284737326735,9.192023114040976C19.011276780684447,8.137754476957824,20.781737118376476,3.899797799249697,18.756630213289053,3.031074497862324C16.967871938096167,2.263739207905144,15.564029483517006,5.145897489785302,13.911473258279882,6.17425420645259C12.736722585181274,6.905280919275644,11.35035701234216,7.274384878164516,10.369478354289335,8.250251804022238C9.438608704758256,9.17636523895562,8.937286000158448,10.418141670769533,8.428894438477279,11.62882016599178C7.959003159365009,12.747814479808637,8.190184187346373,14.11380991498332,7.4907437451934324,15.105641128658874C6.021736199546624,17.18874563490192,1.6749932934202283,17.99198243548007,2.1796182045362382,20.49051425480487C2.6481644030745537,22.81041079594596,6.952312463795543,21.080688565633576,8.952912417459558,22.345226159840497C10.283664860858787,23.18636708368141,10.308774543708253,25.19113175373726,11.40460143617751,26.32143416509191C12.730773416327148,27.689328489766154,14.098403933213033,29.731491154605234,16,29.614020293578506" fill="#7ed0ec" strokewidth="0"></path></g><g id="SVGRepo_tracerCarrier" stroke-linecap="round" stroke-linejoin="round"></g><g id="SVGRepo_iconCarrier"> <path d="M13 31V17H21" stroke="#7037a9" stroke-width="4" stroke-linecap="round" stroke-linejoin="round"></path> <path d="M13 24H20.5" stroke="#7037a9" stroke-width="4" stroke-linecap="round" stroke-linejoin="round"></path> <path d="M13 31H20.5" stroke="#7037a9" stroke-width="4" stroke-linecap="round" stroke-linejoin="round"></path> <path d="M26 31L26 19" stroke="#7037a9" stroke-width="4" stroke-linecap="round" stroke-linejoin="round"></path> <path d="M26 31L26 24.5C26 22.0147 28.0147 20 30.5 20V20C32.9853 20 35 22.0147 35 24.5L35 31" stroke="#7037a9" stroke-width="4" stroke-linecap="round" stroke-linejoin="round"></path> <rect x="6" y="6" width="36" height="36" rx="3" stroke="#7037a9" stroke-width="4" stroke-linecap="round" stroke-linejoin="round"></rect> </g></svg>